<svg width="44" height="44" viewBox="0 0 44 44" fill="none" xmlns="http://www.w3.org/2000/svg">
<ellipse cx="21.994" cy="22" rx="21.994" ry="22" fill="#191919"/>
<path d="M30.0367 30.0025L28.8641 17.1256C28.8325 16.7709 28.5356 16.5 28.1796 16.5H26.1176V15.125C26.1176 14.0195 25.6887 12.9827 24.9121 12.2059C24.1478 11.44 23.0838 11 21.9938 11C19.7201 11 17.8699 12.8507 17.8699 15.125V16.5H15.8079C15.4519 16.5 15.155 16.7709 15.1234 17.1256L13.9536 30.0011C13.8835 30.7698 14.1419 31.5356 14.6615 32.1049C15.1811 32.6741 15.9207 33 16.6918 33H27.2971C28.0669 33 28.8064 32.6741 29.326 32.1063C29.847 31.537 30.104 30.7697 30.0367 30.0025ZM24.743 16.5H19.2445V15.125C19.2445 13.6084 20.4775 12.375 21.9938 12.375C22.7223 12.375 23.4316 12.6665 23.9402 13.1766C24.4585 13.695 24.743 14.3866 24.743 15.125V16.5Z" fill="white"/>
</svg>
